<?xml version="1.0" encoding="utf-8"?>
<!-- Generator: Adobe Illustrator 17.0.0, SVG Export Plug-In . SVG Version: 6.00 Build 0)  -->
<!DOCTYPE svg PUBLIC "-//W3C//DTD SVG 1.1//EN" "http://www.w3.org/Graphics/SVG/1.1/DTD/svg11.dtd">
<svg version="1.1" id="Layer_1" xmlns="http://www.w3.org/2000/svg" xmlns:xlink="http://www.w3.org/1999/xlink" x="0px" y="0px"
	 width="512px" height="512px" viewBox="0 0 512 512" enable-background="new 0 0 512 512" xml:space="preserve">
<circle fill="#4CAF50" cx="256.359" cy="256.061" r="242.541"/>
<g>
	
		<image overflow="visible" opacity="0.15" width="314" height="314" xlink:href="2CEB1E7.png"  transform="matrix(1 0 0 1 101 101)">
	</image>
	<g>
		<path fill="#FFFFFF" d="M329.542,403.083h73.542v-73.542h-73.542 M329.542,292.771h73.542v-73.542h-73.542 M219.229,182.458
			h73.542v-73.542h-73.542 M329.542,182.458h73.542v-73.542h-73.542 M219.229,292.771h73.542v-73.542h-73.542 M108.917,292.771
			h73.542v-73.542h-73.542 M108.917,403.083h73.542v-73.542h-73.542 M219.229,403.083h73.542v-73.542h-73.542 M108.917,182.458
			h73.542v-73.542h-73.542V182.458z"/>
	</g>
</g>
</svg>
